<svg width="30" height="34" viewBox="0 0 30 34" fill="none" xmlns="http://www.w3.org/2000/svg">
    <path
        d="M0 10.3333V28.6667C0 32.335 2.99 33.6667 5 33.6667H30V30.3333H5.02C4.25 30.3133 3.33333 30.01 3.33333 28.6667C3.33333 27.3233 4.25 27.02 5.02 27H30V3.66668C30 1.82834 28.505 0.333344 26.6667 0.333344H5C2.99 0.333344 0 1.66501 0 5.33334V10.3333ZM5 3.66668H26.6667V23.6667H3.33333V5.33334C3.33333 3.99001 4.25 3.68668 5 3.66668Z"
        fill="#E7E2E2" fill-opacity="0.81" />
    <path
        d="M14.995 20.3333L20.5783 14.8517C20.9226 14.5206 21.1964 14.1234 21.3835 13.684C21.5706 13.2445 21.667 12.7718 21.667 12.2942C21.667 11.8165 21.5706 11.3438 21.3835 10.9044C21.1964 10.4649 20.9226 10.0677 20.5783 9.73667C19.8843 9.05167 18.9484 8.6676 17.9733 8.6676C16.9982 8.6676 16.0623 9.05167 15.3683 9.73667L14.995 10.1L14.6217 9.735C13.9279 9.05011 12.9923 8.66608 12.0175 8.66608C11.0427 8.66608 10.1071 9.05011 9.41333 9.735C9.06908 10.0661 8.79521 10.4632 8.60814 10.9027C8.42107 11.3422 8.32465 11.8149 8.32465 12.2925C8.32465 12.7701 8.42107 13.2428 8.60814 13.6823C8.79521 14.1217 9.06908 14.5189 9.41333 14.85L14.995 20.3333Z"
        fill="#E7E2E2" fill-opacity="0.81" />
</svg>